<svg id="logo_ca.svg" xmlns="http://www.w3.org/2000/svg" width="392" height="257.906" viewBox="0 0 392 257.906">
  <defs>
    <style>
      .cls-1 {
        fill: #94831f;
      }

      .cls-1, .cls-2 {
        fill-rule: evenodd;
      }

      .cls-2 {
        fill: #fff;
      }
    </style>
  </defs>
  <path id="シェイプ_1" data-name="シェイプ 1" class="cls-1" d="M600.251,270.979l-9.243,6.969h53.225v-6.969H600.251Zm-16.175,12.195-9.243,6.968h69.4v-6.968H584.076ZM567.9,295.368l-9.243,6.968h85.575v-6.968H567.9Zm-16.175,12.194-9.244,6.968H644.233v-6.968H551.726ZM535.55,319.757l-9.243,6.968H644.233v-6.968H535.55ZM609.1,474.377l9.243-6.968H592.2v6.968h16.9Zm16.175-12.194,9.243-6.968H592.2v6.968h33.076Zm16.175-12.194,9.243-6.969H592.2v6.969h49.251Zm16.175-12.195,9.243-6.968H592.2v6.968h65.426ZM673.8,425.6l9.243-6.968H592.2V425.6h81.6ZM523.374,409.045l7.737,8.324V331.107h-7.737v77.938Zm13.54,14.568,7.737,8.324V331.107h-7.737v92.506Zm13.54,14.567,7.737,8.325v-115.4h-7.737V438.18Zm13.54,14.568,7.737,8.324V331.107h-7.737V452.748Zm13.54,14.568,7.737,8.324V331.107h-7.737V467.316Z" transform="translate(-404 -270.969)"/>
  <path id="シェイプ_2" data-name="シェイプ 2" class="cls-2" d="M417.656,509.108a12.514,12.514,0,0,0-4.871-1.018c-1.646,0-3.776.712-3.776,3.3,0,4.112,10.5,2.378,10.5,10.331,0,5.2-4.153,7.17-8.99,7.17a21.318,21.318,0,0,1-6.145-.918l0.447-4.286a11.67,11.67,0,0,0,5.421,1.461c1.821,0,4.258-.918,4.258-3.059,0-4.519-10.5-2.65-10.5-10.5,0-5.3,4.152-7.237,8.374-7.237a18.222,18.222,0,0,1,5.73.85Zm6.5,5.2h-3.4v-3.331h3.4v-3.5l4.6-1.461v4.961h4.083v3.331h-4.087v8.155c0,1.494.411,2.89,2.16,2.89a4.132,4.132,0,0,0,2.094-.475l0.138,3.6a12.154,12.154,0,0,1-3.4.409c-3.6,0-5.593-2.209-5.593-5.675v-8.905h0ZM452,528.478h-4.357V526.1h-0.071a7.4,7.4,0,0,1-5.8,2.791c-4.187,0-6.006-2.922-6.006-6.864V510.978h4.6v9.346c0,2.14.035,5.028,2.987,5.028,3.329,0,4.049-3.568,4.049-5.81v-8.564H452v17.5h0Zm16.656-1.97h-0.073a6.587,6.587,0,0,1-5.421,2.382c-5.422,0-7.413-4.419-7.413-9.209,0-4.827,1.991-9.107,7.413-9.107a6.309,6.309,0,0,1,5.286,2.446h0.065V502.992h4.6v25.486h-4.459v-1.97h0Zm-4.222-1.156c3.054,0,4.048-3.194,4.048-5.674,0-2.448-1.164-5.573-4.116-5.573-2.987,0-3.81,3.228-3.81,5.573,0,2.412.857,5.674,3.876,5.674h0Zm13.38-21.917h4.6v4.349h-4.6v-4.349Zm0,7.543h4.6v17.5h-4.6v-17.5Zm17.482-.407c5.251,0,9.264,3.5,9.264,9.276,0,5.03-3.4,9.04-9.264,9.04-5.834,0-9.232-4.01-9.232-9.04,0-5.777,4.017-9.276,9.233-9.276h0Zm0,14.781c3.534,0,4.46-3.126,4.46-6.049,0-2.684-1.441-5.2-4.46-5.2-2.988,0-4.428,2.582-4.428,5.2,0,2.888.927,6.049,4.429,6.049h0Zm113.521-14.781c5.251,0,9.264,3.5,9.264,9.276,0,5.03-3.4,9.04-9.264,9.04-5.834,0-9.232-4.01-9.232-9.04,0-5.777,4.017-9.276,9.233-9.276h0Zm0,14.781c3.534,0,4.46-3.126,4.46-6.049,0-2.684-1.441-5.2-4.46-5.2-2.988,0-4.428,2.582-4.428,5.2,0,2.888.927,6.049,4.429,6.049h0Zm-75.65,2.79a24.566,24.566,0,0,1-5.456.748c-7.757,0-13.142-3.841-13.142-11.86,0-8.122,5.009-12.676,13.142-12.676a15.975,15.975,0,0,1,5.421.986l-0.344,4.01a9.951,9.951,0,0,0-5.18-1.257c-4.943,0-8.03,3.738-8.03,8.6,0,4.826,3.019,8.461,8.133,8.461a13.472,13.472,0,0,0,5.251-.985Zm3.117-17.161h4.083v3.976h0.071c0.206-1.631,2.094-4.385,4.837-4.385a5.056,5.056,0,0,1,1.408.135v4.585a4.7,4.7,0,0,0-2.057-.375c-3.744,0-3.744,4.622-3.744,7.136v6.422h-4.6v-17.5Zm27.5,16.516a12.257,12.257,0,0,1-6.068,1.393c-5.833,0-9.231-3.331-9.231-9.07,0-5.063,2.71-9.241,8.2-9.241,6.554,0,8.4,4.452,8.4,10.564H552.878c0.2,2.819,2.2,4.417,5.045,4.417a12.017,12.017,0,0,0,5.869-1.766v3.7Zm-3.09-9.482c-0.135-2.208-1.165-4.111-3.741-4.111s-3.878,1.766-4.083,4.111H560.7Zm8.714-6.117a15.952,15.952,0,0,1,6.141-1.324c5.39,0,7.619,2.207,7.619,7.375v2.243c0,1.767.035,3.09,0.07,4.385,0.033,1.326.1,2.549,0.206,3.908H579.4a21.184,21.184,0,0,1-.206-2.615h-0.068a6.33,6.33,0,0,1-5.453,3.02c-3.122,0-6.177-1.87-6.177-5.2a5.138,5.138,0,0,1,3.02-5,14.127,14.127,0,0,1,5.939-1.019h2.537c0-2.822-1.27-3.772-3.98-3.772a9.3,9.3,0,0,0-5.455,1.9Zm5.386,13.661A3.915,3.915,0,0,0,578.024,524a5.76,5.76,0,0,0,.961-3.6H577c-2.059,0-5.113.341-5.113,3.025,0,1.493,1.273,2.138,2.921,2.138Zm14.227-11.247h-3.4v-3.331h3.4v-3.5l4.6-1.461v4.961h4.084v3.331h-4.084v8.154c0,1.5.412,2.891,2.161,2.891a4.131,4.131,0,0,0,2.093-.475l0.143,3.6a12.15,12.15,0,0,1-3.4.409c-3.6,0-5.593-2.209-5.593-5.675v-8.9Zm32.909-3.333h4.084v3.976h0.071c0.206-1.631,2.093-4.385,4.836-4.385a5.06,5.06,0,0,1,1.409.135v4.585a4.7,4.7,0,0,0-2.058-.375c-3.743,0-3.743,4.622-3.743,7.136v6.422h-4.6V510.978h0Zm24.174,3.67a11.369,11.369,0,0,0-4.119-.747c-1.235,0-2.711.441-2.711,1.936,0,2.79,8,1.019,8,7.34,0,4.079-3.672,5.71-7.412,5.71a20.768,20.768,0,0,1-5.216-.748l0.273-3.738a10.179,10.179,0,0,0,4.531,1.155c1.164,0,3.02-.441,3.02-2.141,0-3.432-8-1.087-8-7.408,0-3.771,3.328-5.436,6.932-5.436a21.384,21.384,0,0,1,5.011.644Zm21.554-9.889h5.422l9.4,23.72h-5.318l-2.058-5.437h-9.715L663.3,528.48h-4.973Zm2.643,4.757h-0.071l-3.466,9.787h7Zm30.589,18.962h-4.357V526.1h-0.071a7.394,7.394,0,0,1-5.8,2.791c-4.188,0-6.008-2.922-6.008-6.864V510.978h4.6v9.346c0,2.14.035,5.028,2.987,5.028,3.328,0,4.049-3.568,4.049-5.81v-8.564h4.6v17.5h0Zm16.655-1.97h-0.07a6.586,6.586,0,0,1-5.422,2.381c-5.422,0-7.413-4.419-7.413-9.209,0-4.827,1.991-9.107,7.413-9.107a6.309,6.309,0,0,1,5.286,2.446h0.067V502.992h4.6v25.486H717.55v-1.97h0Zm-4.221-1.156c3.054,0,4.048-3.194,4.048-5.674,0-2.448-1.164-5.573-4.116-5.573-2.987,0-3.81,3.228-3.81,5.573,0,2.411.857,5.673,3.88,5.673h0Zm13.383-21.917h4.6v4.349h-4.6v-4.349Zm0,7.543h4.6v17.5h-4.6v-17.5h0Zm10.743,3.331h-3.4v-3.331h3.4v-3.5l4.6-1.461v4.961h4.077v3.331h-4.08v8.154c0,1.495.411,2.891,2.161,2.891a4.128,4.128,0,0,0,2.093-.475l0.138,3.6a12.15,12.15,0,0,1-3.4.409c-3.6,0-5.593-2.209-5.593-5.675v-8.906h0Zm11.966-10.874h4.6v4.349h-4.6v-4.349Zm0,7.543h4.6v17.5h-4.6v-17.5h0Zm17.482-.407c5.251,0,9.265,3.5,9.265,9.276,0,5.03-3.4,9.04-9.265,9.04-5.833,0-9.231-4.01-9.231-9.04,0-5.778,4.015-9.277,9.23-9.277h0Zm0,14.781c3.534,0,4.461-3.126,4.461-6.049,0-2.684-1.442-5.2-4.461-5.2-2.987,0-4.427,2.582-4.427,5.2,0,2.887.925,6.048,4.426,6.048h0Zm12.869-14.374h4.36v2.379H784.2a6.623,6.623,0,0,1,5.8-2.79c4.187,0,6,2.921,6,6.864v11.043h-4.6v-9.342c0-2.14-.036-5.028-2.985-5.028-3.332,0-4.052,3.568-4.052,5.81v8.563h-4.6v-17.5h0.008Z" transform="translate(-404 -270.969)"/>
</svg>
